<svg xml:space="preserve" style="enable-background:new 0 0 80 80;" viewBox="0 0 80 80" y="0px" x="0px" xmlns:xlink="http://www.w3.org/1999/xlink" xmlns="http://www.w3.org/2000/svg" version="1.1">
<style type="text/css">
	.st0{display:none;}
	.st1{display:inline;fill:#FFFFFF;stroke:#000000;strokeWidth:2;stroke-miterlimit:10;}
	.st2{stroke:#404040;strokeWidth:1.5;stroke-miterlimit:10;}
	.st3{fill-rule:evenodd;clip-rule:evenodd;}
	.st4{clip-path:url(#SVGID_00000001632239418468332490000000557756966237643906_);}
	.st5{fill:#010101;}
	.st6{fill:none;stroke:#000000;strokeWidth:1.5;stroke-linecap:round;stroke-linejoin:round;}
</style>
<g id="Layer_2">
</g>
<g className="st0" id="Layer_3">
	<line y2="32.21" x2="-1159.28" y1="32.21" x1="73.91" className="st1"/>
</g>
<g id="Layer_1">
	<g>
		<path d="M50.05,31.72l0.01-0.01c-1.32-3.62,7.47-12.98-8.71-12.98c-13.83,0-15.12,13.67-15.72,14.74c-0.91,1.2-1.58,2.56-1.98,4    c-0.39,1.76,0,3.71,1.13,3.71c1.71,0-0.38-3.42,1.71-3.42c2.64,0,5.78,4.29,6.63,6.73c-1.42,2.55-3.41,4.2-4.83,3.52    c-1.69-0.57-2.86-2.13-2.94-3.92c0-1.56-1.46-1.51-1.32,0.49c0.16,2.35,1.43,4.49,3.41,5.77c2.21,1.75,3.99,3.99,5.21,6.54    c0.65,1.6,1.52,2.34,3.88,2.34c2.37,0,0.57,2.05,2.17,2.05s0.67-2.25,1.62-2.25s-0.01,2.15,1.8,2.15c2.73,0,1.52-3.42,2.37-4    c0.85-0.59,12.68-6.83,12.5-14.54C56.77,35.03,51.37,35.32,50.05,31.72z M38.49,53.48L38.49,53.48c-1.32-0.76-2.9-0.94-4.36-0.49    c-1.04,0.39-2.09-0.19-1.23-2.84c0.39-1.34,0.96-2.62,1.71-3.8c2.06,2.14,3.95,4.42,5.68,6.83    C40.38,53.96,39.15,54.26,38.49,53.48z M46.54,49.08C46.54,49.08,46.53,49.08,46.54,49.08c-3.51,0.1-6.43-2.65-6.54-6.16    c-0.1-3.5,2.65-6.43,6.16-6.53c3.5-0.1,6.43,2.65,6.53,6.16c0,0.06,0,0.12,0,0.18C52.75,46.19,49.99,49.03,46.54,49.08z"/>
		<polygon points="19.49,25.79 14.33,25.44 17.82,40 14.33,54.56 19.49,54.21 10.28,67.23 12.8,57.88 6.59,59.23     14.39,40 6.59,20.77 12.8,22.12 10.28,12.77" className="st3"/>
		<polygon points="73.41,59.23 67.2,57.88 69.72,67.23 60.51,54.21 65.67,54.56 62.18,40 65.67,25.44 60.51,25.79     69.72,12.77 67.2,22.12 73.41,20.77 65.61,40" className="st3"/>
	</g>
</g>
<g id="Layer_4">
</g>
</svg>