<svg viewBox="0 0 80 80" xmlns="http://www.w3.org/2000/svg" id="Layer_1"><defs><style>.cls-1{fill:#231f20;strokeWidth:0px;}</style></defs><path d="M67.94,45.24c-.56,1.13-1.89,1.29-2.45,1.35-.84.1-1.68.16-2.58.21l.14,1.85c.14,1.92.28,3.76.4,5.6.28,4.11-1.51,6.17-5.65,6.49l-1.58.12c-1.8.15-3.6.29-5.4.36-.31.01-.41.06-.41.06-.11,1.05-.29,2.04-.47,3.04-.4,2.21-.82,4.49-1.06,6.72l-.16,1.45-2.91-.32.16-1.45c.26-2.34.68-4.67,1.1-6.93.18-.98.36-1.96.52-2.94.19-1.11.88-2.46,3.11-2.56,1.77-.07,3.53-.21,5.29-.35l1.59-.13c2.52-.19,3.13-.89,2.96-3.37-.12-1.83-.26-3.67-.4-5.58l-.35-4.78,2.8-.19c.81-.05,1.56-.1,2.31-.18-3.59-6.2-5.76-11.8-6.81-17.61-.95-5.24-4.29-9.91-9.18-12.81-5.02-2.97-10.88-3.68-16.11-1.93-5.31,1.77-9.56,5.46-11.96,10.39-2.4,4.91-2.72,10.58-.93,15.96,1.15,3.43,1.99,7.22,2.58,11.58.58,4.3.2,8.95-1.17,14.22l-.37,1.42-2.83-.74.37-1.42c1.28-4.89,1.64-9.18,1.11-13.09-.57-4.17-1.37-7.78-2.46-11.04-2.04-6.11-1.66-12.57,1.07-18.17,2.75-5.64,7.6-9.86,13.67-11.88,6.02-2.01,12.78-1.21,18.52,2.19,5.62,3.33,9.47,8.72,10.56,14.8,1,5.53,3.09,10.89,6.58,16.87.29.5.97,1.66.41,2.79ZM46.82,37.91l2.06,1.76c3.5-3,5.43-6.99,5.43-11.22s-1.93-8.22-5.43-11.22l-2.06,1.76c2.95,2.53,4.58,5.89,4.58,9.46s-1.63,6.93-4.58,9.46ZM44.06,21.37l-2.06,1.76c1.66,1.42,2.58,3.31,2.58,5.32s-.91,3.9-2.58,5.32l2.06,1.76c2.21-1.9,3.43-4.41,3.43-7.08s-1.22-5.19-3.43-7.08ZM26.35,28.45c0-3.57,1.63-6.93,4.58-9.46l-2.06-1.76c-3.5,3-5.43,6.99-5.43,11.22s1.93,8.22,5.43,11.22l2.06-1.76c-2.95-2.53-4.58-5.89-4.58-9.46ZM33.7,21.37c-2.21,1.9-3.43,4.41-3.43,7.08s1.22,5.19,3.43,7.08l2.06-1.76c-1.66-1.42-2.58-3.31-2.58-5.32s.91-3.9,2.58-5.32l-2.06-1.76Z" className="cls-1"/></svg>