<svg id="Delivery_Address" data-name="Delivery Address" xmlns="http://www.w3.org/2000/svg" xmlns:xlink="http://www.w3.org/1999/xlink" width="17.186" height="23.357" viewBox="0 0 17.186 23.357">
  <defs>
    <clipPath id="clip-path">
      <rect id="Rectangle_1446" data-name="Rectangle 1446" width="17.186" height="23.357" fill="#fff"/>
    </clipPath>
  </defs>
  <g id="Group_2067" data-name="Group 2067" clip-path="url(#clip-path)">
    <path id="Path_9028" data-name="Path 9028" d="M8.457,23.357a1.268,1.268,0,0,1-.478-.493C6.89,21.209,5.753,19.5,4.5,17.63l-.185-.277a49.838,49.838,0,0,1-3.256-5.331A9.744,9.744,0,0,1,.083,9.345,6.4,6.4,0,0,1,.315,6.359,8.389,8.389,0,0,1,7.279.125,8.156,8.156,0,0,1,8.7,0a8.631,8.631,0,0,1,8.308,6.747,6.887,6.887,0,0,1-.515,4.573,37.308,37.308,0,0,1-2.806,4.85c-.8,1.2-1.617,2.413-2.41,3.586q-.742,1.1-1.483,2.2c-.193.287-.378.588-.551.9a1.069,1.069,0,0,1-.482.5ZM8.641,1.169a7.478,7.478,0,0,0-7.1,5.11,5.511,5.511,0,0,0,.175,4.408c.094.187.186.375.278.563a19.954,19.954,0,0,0,1,1.879c.948,1.5,1.945,3.01,2.909,4.467l.728,1.1c.411.622.82,1.225,1.253,1.864q.29.428.584.862l.126.186.135-.18.037-.049c.024-.031.044-.057.061-.083L9.89,19.734c.844-1.25,1.718-2.543,2.571-3.819a41.82,41.82,0,0,0,2.8-4.695,6.107,6.107,0,0,0,.687-3.884A7.475,7.475,0,0,0,8.964,1.176c-.107,0-.216-.007-.323-.007" transform="translate(0)" fill="#fff"/>
    <path id="Path_9029" data-name="Path 9029" d="M68.921,56.783a.79.79,0,0,1-.4-.123c-1.317-.771-2.642-1.532-3.877-2.241a.646.646,0,0,1-.359-.615q0-2.246,0-4.492v-.152a.638.638,0,0,1,.348-.6c1.37-.793,2.708-1.573,3.95-2.3a.67.67,0,0,1,.341-.1.644.644,0,0,1,.328.1l.354.206q1.808,1.052,3.616,2.1a.638.638,0,0,1,.338.605q0,.837,0,1.673v.637q0,.33,0,.66c0,.519,0,1.055,0,1.584a.735.735,0,0,1-.41.725c-1.158.659-2.407,1.38-3.819,2.2a.813.813,0,0,1-.412.127m-3.45-6.42c0,.019-.008.033-.011.044a.325.325,0,0,0-.015.09v.433c0,.782,0,1.591,0,2.387a.45.45,0,0,0,.212.344c1.024.6,2.053,1.194,3.059,1.766a.417.417,0,0,0,.2.048.407.407,0,0,0,.2-.047c1.112-.633,2.113-1.211,3.059-1.768a.508.508,0,0,0,.214-.382c.011-.257.01-.516.008-.767,0-.093,0-.187,0-.28v-2.11l-.235.124-.1.05c-.053.028-.094.049-.133.071l-.69.4c-.633.364-1.288.74-1.928,1.117a.778.778,0,0,1-.4.123.769.769,0,0,1-.394-.122c-.628-.372-1.272-.742-1.894-1.1L65.97,50.4c-.059-.034-.117-.064-.179-.1l-.088-.047-.184-.1Zm3.467-2.894a.449.449,0,0,0-.206.053c-.207.113-.413.234-.612.351l-.17.1-1.924,1.122.754.435c.674.39,1.311.758,1.963,1.123a.323.323,0,0,0,.16.038.566.566,0,0,0,.263-.069c.629-.356,1.265-.724,1.88-1.08l.338-.2c.042-.025.08-.051.124-.081l.069-.047.212-.143-.658-.383c-.707-.411-1.375-.8-2.058-1.191a.266.266,0,0,0-.134-.033" transform="translate(-60.314 -43.311)" fill="#fff"/>
  </g>
</svg>
