<svg id="Group_2040" data-name="Group 2040" xmlns="http://www.w3.org/2000/svg" xmlns:xlink="http://www.w3.org/1999/xlink" width="25.004" height="26.064" viewBox="0 0 25.004 26.064">
  <defs>
    <clipPath id="clip-path">
      <rect id="Rectangle_1382" data-name="Rectangle 1382" width="25.004" height="26.064" fill="#1fb926"/>
    </clipPath>
  </defs>
  <g id="Group_1906" data-name="Group 1906" clip-path="url(#clip-path)">
    <path id="Path_9020" data-name="Path 9020" d="M12.857,26.063h-.713a2.959,2.959,0,0,1-1.3-.706c-.475-.473-.964-.931-1.443-1.4a.878.878,0,0,0-.781-.275c-.737.108-1.475.214-2.214.306A2.209,2.209,0,0,1,4,22.351c-.17-.715-.291-1.443-.4-2.17a1.077,1.077,0,0,0-.628-.883c-.57-.279-1.128-.584-1.686-.887A2.277,2.277,0,0,1,.268,15.273q.426-.894.871-1.779a.955.955,0,0,0,0-.921q-.447-.884-.871-1.779A2.277,2.277,0,0,1,1.286,7.654c.573-.312,1.146-.623,1.729-.914a.964.964,0,0,0,.567-.755c.1-.618.228-1.232.315-1.852A2.29,2.29,0,0,1,6.461,2.083c.6.079,1.2.136,1.785.254a1.3,1.3,0,0,0,1.367-.42c.387-.437.831-.823,1.256-1.226a2.27,2.27,0,0,1,3.264,0c.493.467.979.94,1.464,1.415a.928.928,0,0,0,.856.265c.736-.116,1.475-.221,2.216-.293A2.178,2.178,0,0,1,21,3.715c.173.714.293,1.442.406,2.169a1.077,1.077,0,0,0,.628.883c.57.279,1.128.584,1.686.887a2.271,2.271,0,0,1,1.02,3.138q-.425.894-.871,1.779a.957.957,0,0,0,0,.922q.446.884.871,1.779a2.271,2.271,0,0,1-1.016,3.139c-.58.316-1.162.628-1.752.926a.949.949,0,0,0-.545.743c-.1.618-.228,1.232-.315,1.852a2.288,2.288,0,0,1-2.561,2.052c-.6-.078-1.2-.133-1.785-.252a1.271,1.271,0,0,0-1.365.418c-.238.285-.539.516-.8.784a3.505,3.505,0,0,1-1.737,1.131M18.223,8.171a.811.811,0,0,0-.472-.782.78.78,0,0,0-.912.249q-4.864,4.87-9.733,9.735a1.731,1.731,0,0,0-.155.168.736.736,0,0,0,.337,1.147.789.789,0,0,0,.885-.271q4.288-4.294,8.582-8.583c.4-.4.8-.782,1.182-1.192a2.332,2.332,0,0,0,.286-.471m-8.739,3.6A2.749,2.749,0,1,0,6.745,9.014a2.759,2.759,0,0,0,2.738,2.755M15.516,14.3a2.749,2.749,0,1,0,2.741,2.751A2.758,2.758,0,0,0,15.516,14.3" transform="translate(0 0.001)" fill="#1fb926"/>
    <path id="Path_9021" data-name="Path 9021" d="M130.464,124.5a1.253,1.253,0,1,1,1.256-1.247,1.275,1.275,0,0,1-1.256,1.247" transform="translate(-120.965 -114.214)" fill="#1fb926"/>
    <path id="Path_9022" data-name="Path 9022" d="M224.785,250.178a1.264,1.264,0,0,1-1.265-1.258,1.26,1.26,0,0,1,2.52.016,1.26,1.26,0,0,1-1.255,1.242" transform="translate(-209.273 -231.886)" fill="#1fb926"/>
  </g>
</svg>
