<svg id="Group_6386" data-name="Group 6386" xmlns="http://www.w3.org/2000/svg" xmlns:xlink="http://www.w3.org/1999/xlink" width="375.401" height="284.737" viewBox="0 0 375.401 284.737">
  <defs>
    <clipPath id="clip-path">
      <rect id="Rectangle_1430" data-name="Rectangle 1430" width="375.402" height="284.737" fill="none"/>
    </clipPath>
  </defs>
  <g id="Group_6385" data-name="Group 6385" clip-path="url(#clip-path)">
    <path id="Path_9105" data-name="Path 9105" d="M77.849,17.6a2.5,2.5,0,0,0-.021-1.03,2.981,2.981,0,0,0-1.114.5,1.257,1.257,0,0,0-.5-.183c-.253-.021-.507-.037-.76-.057l-.014-.008.311-.012c.328-.013.784-.2.483-.557-.314-.367-1.078-.384-1.507-.367l-8.853.35q-11.493-.51-23-.034-4.68.2-9.351.563c-.254.02.016.36.222.583L12.453,17.2l-6.389-.045a.6.6,0,0,0-.508.927,1.314,1.314,0,0,0,.533.537.771.771,0,0,0-.3.116l-.8-.014a1.953,1.953,0,0,0-1.633-.028c-.332-.007-.664-.01-1-.018a2.251,2.251,0,0,0-1.374.713,1.508,1.508,0,0,0-.22.273c-.433-.045-.791.018-.759.257q.455,3.386.674,6.8l.016,1.066a.287.287,0,0,0,.018.08l.153,8.25c0,.23.3.426.667.563A2.185,2.185,0,0,0,2.1,37.4a2.753,2.753,0,0,0,1.949.5,2.152,2.152,0,0,0,.817.2,2.166,2.166,0,0,0-.3.119c-.066.033-.177.1-.2.142-.059.063.025.1.289.094l6.192-.187c.073,0,.147-.012.222-.018a80.033,80.033,0,0,0,9.825-.112,3.267,3.267,0,0,0,.789-.146,44.542,44.542,0,0,0,7.272-.3,48.923,48.923,0,0,1,.586,10.879c-.015.252.758.564.935.652.039.02.364.158.649.259q.334,11.3.5,22.605.071,4.947.109,9.893c0,.045.266.053.613.03.012.523.04,1.046.078,1.568-.2.066-.324.182-.291.359a55.893,55.893,0,0,1,.286,18.971c-.061.386.828.668,1.5.661l.268,12.136q.005,2.4.068,4.8a.746.746,0,0,0,.043.222l.212,9.6a.91.91,0,0,0,.384.591q.014.469.029.937c.015.475.521,1.518,1.081,1.556a15.033,15.033,0,0,0,3.684-.207,17.758,17.758,0,0,0,3.151-.337L55.7,130.793c.176-.028.217-.091.253-.268.192-.93.341-1.864.459-2.8.157-.032.26-.113.258-.264q-.019-.962-.037-1.924a64.608,64.608,0,0,0-.2-10.269q-.043-2.213-.086-4.426c0-.161-.17-.332-.405-.484l-.039-1.932a.736.736,0,0,0,.949-.86q-1.26-13.742-2-27.525t-.946-27.605q-.113-7.422-.071-14.844l20.226-1a.878.878,0,0,0,.558-.232,1.813,1.813,0,0,0,1.6-.7c.024-.031.041-.065.063-.1l.029.006c.35.035.861-.373,1.117-.555.2-.144.627-.393.681-.669a.388.388,0,0,0,.074-.212l-.046-2.315h0q-.143-7.108-.286-14.215M6.569,24.326a2.878,2.878,0,0,0-.543-.016,2.3,2.3,0,0,0,.053-.335l.657-.06c-.064.251-.122.416-.167.41m4.045,11.2,1.689-.138a.849.849,0,0,0,.039.147c-.576,0-1.152-.006-1.728-.009M23.205,34.5a.022.022,0,0,1,0-.005h0l0,.006m6.831,3.486c-.058-.028-.654-.247-.937-.325.5-.064,1.006-.134,1.508-.216q.024.426.049.853a6.3,6.3,0,0,0-.62-.312m19.352,91.66a.859.859,0,0,0,.1-.2l.833-.067a1.084,1.084,0,0,0,.117.1Zm5.271-.843-.456.073a1.19,1.19,0,0,0,.386-.871l-.019-.419c.02-.019.041-.035.06-.054.088-.09.166-.186.244-.281l.049.038c-.078.506-.162,1.011-.263,1.515m-1.071-93c0-.026.009-.051.01-.078a1.2,1.2,0,0,0-.011-.192l16.7-.873a.883.883,0,0,0,.114.311Zm19.075-5.564-20.592.939a4.435,4.435,0,0,0-2.595.927c-.026-.048-.049-.1-.076-.146l-.166-.16-.217-.113a1.268,1.268,0,0,0-.686-.038,1.423,1.423,0,0,0-.544.221.989.989,0,0,0-.42.482l-.056.211-.022-.01a1.394,1.394,0,0,0-.834-.01,1.344,1.344,0,0,0-.695.461.756.756,0,0,0-.149.662.773.773,0,0,0,.285.369,1.035,1.035,0,0,0-.144.557l4.134,90.628c-4.534.676-3.326,1.141-7.86,1.817-.071-.008-.143-.01-.215-.018a4.565,4.565,0,0,0-1.356.082c.617-23.716-1.609-70.177-4.584-93.714a1,1,0,0,0-.731-.841c.026-.035.071-.058.094-.094.527-.865-.537-1.057-1.2-1L7.829,33.59c-.092.008-.206.031-.307.045l-.182-9.773c7.788-.7,15.036-1.3,22.133-1.81a2.037,2.037,0,0,0-.8.732c-.233.417-.032.631.409.6q16.055-1.1,32.134-1.786,4.535-.193,9.071-.353a1.984,1.984,0,0,0,1.379-.716l0,0c.276-.031.353-.219.219-.44a.547.547,0,0,0,.013-.119l.426-.012c.6,5.592.291,4.659.333,10.284m2.582,2.736a3.38,3.38,0,0,0-.234-.639,2.571,2.571,0,0,0,1.215-.891l.02.993a4.774,4.774,0,0,0-1,.537" transform="translate(0 -9.559)"/>
    <path id="Path_9106" data-name="Path 9106" d="M803,46.3c0-.085,0-.171,0-.256,0-.922-1.575-1.456-2.081-.713q.527-5.268,1.054-10.538c.079-.788-.9-1.433-1.59-1.32q.249-2.836.625-5.663.467-3.468,1.131-6.91c.185-.965-1.694-2-2.142-.877a120.227,120.227,0,0,0-6.225,23.486c-.256,1.422-.5,2.844-.744,4.268-.182.834-.327,1.674-.428,2.521-.138,1.149,1.989,1.985,2.216.638q.2-1.2.409-2.41c.03-.137.063-.273.1-.409a66.859,66.859,0,0,1-1.13,9.607c-.221,1.155,1.961,1.969,2.216.638a68.2,68.2,0,0,0,1.107-16.553,1.273,1.273,0,0,0-.9-1c.443-2.292.925-4.576,1.468-6.849q-.442,5.6-.393,11.226c.017,1.643.08,3.285.162,4.927q-.649,7.377-.875,14.779c0,.158-.006.317-.01.476a.741.741,0,0,0-.424.618q-1.687,11.831-3.075,23.7T791,113.437q-.614,6.747-1.131,13.5c-.087,1.136,1.893,1.992,2.216.638.418-1.75.782-3.51,1.116-5.273a.746.746,0,0,0,.559-.389q.043,1.56.118,3.118c.049,1,2.147,1.621,2.217.382q.08-1.421.145-2.842a.761.761,0,0,0,.72-.668q.42-13.1.839-26.2a1.291,1.291,0,0,0-.963-1.288.942.942,0,0,0-1.254.65c-.253,1.531-.473,3.066-.674,4.6a1.531,1.531,0,0,0-.245-.2q.8-7.528,1.731-15.044c-.02.5-.046,1-.063,1.494a1.289,1.289,0,0,0,.963,1.288.941.941,0,0,0,1.254-.65,76.45,76.45,0,0,0,.752-12.825c.02-.24.041-.48.062-.72a100.105,100.105,0,0,0,3.46-20.676c.12-2.01.172-4.022.176-6.035V46.3h0" transform="translate(-475.437 -11.758)" fill="#cbcae3"/>
    <path id="Path_9107" data-name="Path 9107" d="M808.813,8.8a.843.843,0,0,0-.7-.924q.072-3.825.143-7.65c.012-.627-2.188.186-2.262.78q-.218,1.753-.436,3.5a3.564,3.564,0,0,0-.917.351c0-.459.011-.918.012-1.377.005-3.838-3.64-4.5-4.558-1.642a2.036,2.036,0,0,0-.876.215.656.656,0,0,0-.187-.01.988.988,0,0,0-.624.372c-.054-.411-.106-.823-.169-1.232-.142-.928-1.342-.571-1.524.192-.015.062-.027.125-.042.187a1,1,0,0,0-.615.884l-.174,3.678a1,1,0,0,0-.875,1.033q-.026.532-.051,1.064a.747.747,0,0,0-.627.7c-.03.925-.069,1.85-.1,2.775q-.173,1.184-.346,2.368a1.069,1.069,0,0,0-.39.86c-.008.672-.02,1.344-.031,2.016l-.334,2.289c-.011.072.126.054.29.007q-.079,3.661-.216,7.322c-.453,3.959-.874,7.922-1.113,11.909-.177,2.96-.248,5.925-.16,8.879.04,1.343,1.484,1.128,1.591-.123q.133-1.571.255-3.144a.93.93,0,0,0,1.074-.71c.049-.314.094-.63.143-.945a.731.731,0,0,0,.231.11q-.017.312-.033.625.18-1.4.363-2.8c-1.472-.012-2.911-1.085-2.287-2.719s1.188-3.257,1.715-4.9a61.491,61.491,0,0,1,1.165-6.933c.341-2.277.661-4.555.888-6.839a2,2,0,0,1-.537-1.417,19.832,19.832,0,0,1,.916-7.107c.9-2.374,4.649-1.979,4.754.595a57.173,57.173,0,0,1-.314,8.148,1.875,1.875,0,0,1,.314,1.046c0,.063,0,.126,0,.189a2.191,2.191,0,0,1,.331,1.555c-.136.9-.3,1.795-.467,2.688-.426,8-1.761,15.927-2.655,23.893a1.833,1.833,0,0,1,.219.579c.4,2.136.678,4.284.868,6.438-.556.133-1.1.5-1.115.963-.183,4.64-.431,9.278-.716,13.914a1.865,1.865,0,0,0-.2-.057,57.482,57.482,0,0,1,.5-10.511c.075-.537-.752-.648-1.148-.58a1.343,1.343,0,0,0-1.184.984,57.714,57.714,0,0,0,.239,17.5l-.111,1.482a1.574,1.574,0,0,0-1.767-.892,108.154,108.154,0,0,0,.744-22.339A1.95,1.95,0,0,1,794,53.956c.014-.26.038-.518.067-.774.223-2.647.523-5.288.851-7.927-.37.192-.763.5-.8.766q-.258,2.138-.516,4.276c-.02.164.1.168.242.125q-.472,7.587-.908,15.177c-.453-.188-1.022.061-1.034.855q-.078,4.994-.237,9.988-.564,4.27-.846,8.582-1.05,10.435-1.935,20.894-.369,4.388-.707,8.779a.928.928,0,0,0,.5.922q-.016.237-.032.475c-.082,1.226,1.486,1.412,1.584.09,0-.008,0-.016,0-.025-.277-3.81.631-7.855,1.178-11.45.166-1.09.321-2.181.475-3.273a.85.85,0,0,0-.644-.354l.049-.726a.949.949,0,0,0-.27-.746c.009-.1.018-.2.027-.306.451.325,1.114.121,1.171-.769.027-.43.05-.859.077-1.289-.008.494-.023.987-.034,1.481.491-3.63.951-7.265,1.447-10.892q.135-.991.271-1.988A69.464,69.464,0,0,0,795.206,99.9c.1.535.97.971,1.609.926q-.2,1.468-.41,2.936c-.69,4.835-2.485,10.755-.551,15.5.008.018.012.036.019.054a3.343,3.343,0,0,0,.924-2c.036-.026.07-.055.105-.084a1.968,1.968,0,0,0,1.741.024,2.921,2.921,0,0,0,.5.339c.447.59,2.028,1.313,2.081.675l.37-4.433c.021,1.034.033,2.068.061,3.1.027.97,2.353.209,2.33-.645-.006-.227-.008-.455-.014-.683.228.017.383-.042.379-.219-.051-2.058-.083-4.117-.116-6.176a.866.866,0,0,0,.423-.559,2.629,2.629,0,0,0,.389-.108c.427-.168,1.079-.532,1.134-1.015a125.054,125.054,0,0,0,.525-22.218q.554-9.467,1.108-18.934.3-5.148.6-10.3c.03-.516-1.467-.348-2.13.021q.134-4.753.365-9.5.26-5.251.64-10.5c.026-.351-.6-.791-1.193-1.016q.55-8.611,1.536-17.191.527-4.551,1.176-9.09M796.584,81.013q-.091,1.223-.183,2.446.069-1.224.183-2.446m2.174,5.324q-.257,1.923-.511,3.846.143-1.916.287-3.832a1.533,1.533,0,0,0,.24-.136c-.006.041-.011.081-.016.122M803.9,68.815q-.15,3.118-.3,6.236c-.063-.033-.127-.063-.192-.093q.006-1.822-.006-3.644c0-.295-.265-.4-.611-.383l.272-8.275c.021-.638-.723-.714-1.376-.488,0-.1.005-.209.009-.313l.138-.838a.241.241,0,0,0,.067-.094,8.678,8.678,0,0,0,.524-3.5c-.009-.155-.314-.271-.707-.338.082-1.626.165-3.252.263-4.877a2.754,2.754,0,0,0,1.91-.828,3.457,3.457,0,0,0,.329-.152q-.328,8.789-.321,17.584" transform="translate(-474.419 0)" fill="#cbcae3"/>
    <path id="Path_9108" data-name="Path 9108" d="M793.468,164.968c.58-3.809,1.077-7.634,1.577-11.457q.57-10.278,1.152-20.555.477-8.421.971-16.84a1.874,1.874,0,0,1-1.117-1.9c.014-.26.038-.518.067-.774.36-4.281.922-8.546,1.478-12.811a2.891,2.891,0,0,1-1.659-.516q-.227,3.885-.456,7.77-1.294,22.289-2.533,44.58-.691,12.44-1.366,24.882c.2-.037.4-.066.6-.1a.393.393,0,0,0,.206.141c-.535-4.086.485-8.518,1.079-12.419" transform="translate(-476.467 -60.26)"/>
    <path id="Path_9109" data-name="Path 9109" d="M858.868,122.414a170.287,170.287,0,0,0-2.1-17.667.234.234,0,0,0-.065-.121,86.107,86.107,0,0,0-2.912-15.542c-3.006-10.223-8.788-19.633-17.946-26.187a46.689,46.689,0,0,0-4.016-2.561,21.267,21.267,0,0,0-7.716-4.021c-.117-.049-.237-.09-.354-.139.4-.064.79-.144,1.184-.223a40.433,40.433,0,0,0,24.336-13.3,33.2,33.2,0,0,0,4.559-6.929c.048-.1-.091-.159-.315-.185a42.279,42.279,0,0,0,5.268-13.491c.054-.271-.292-.353-.72-.322.007-.173-.178-.237-.442-.232-.01-.085-.01-.168-.025-.253a.266.266,0,0,0-.193-.163,5.194,5.194,0,0,0-1.467-.066,58.367,58.367,0,0,1-4.231,10.765c-2.13,4.352-4.757,10.5-9.639,12.987-.247.215-.5.428-.76.632a3.681,3.681,0,0,1-.586.372,16.3,16.3,0,0,1-3.154,2.016A16.367,16.367,0,0,1,828.77,51.4a32.982,32.982,0,0,1-4.388,1,30.789,30.789,0,0,1-3.221.543,4.212,4.212,0,0,1-1.733-.153c-.332,0-.664,0-1-.006a2.684,2.684,0,0,0-1.528.313.556.556,0,0,0-.217.25c.04-1.136.075-2.273.115-3.409a3.231,3.231,0,0,1,.058-1.732q.283-8.227.551-16.454.39-12.415.726-24.832a.667.667,0,0,0-.475-.659,1.515,1.515,0,0,0,.462-.232c.327-.259.291-.6-.166-.7a25.173,25.173,0,0,0-10.778.2c-.42-.518-2.017-.228-2.057.435-.006.1-.012.192-.018.288a.313.313,0,0,0-.063.446.378.378,0,0,0,.035.03q-.947,15.681-1.867,31.363.424-1.207.811-2.424a61.651,61.651,0,0,1,1.165-6.934c.341-2.277.662-4.555.889-6.839a2,2,0,0,1-.537-1.417,19.84,19.84,0,0,1,.916-7.107,2.4,2.4,0,0,1,.423-.714q.183-3.048.364-6.1a20.976,20.976,0,0,1,9.219-.242.752.752,0,0,0-.5.637q-.6,22.111-1.368,44.219t-1.709,44.208q-.486,11.4-1.019,22.793a73.969,73.969,0,0,0-7.769.445c.025.306.06.609.1.91a68.32,68.32,0,0,1,7.921-.365,1.922,1.922,0,0,0,1.44-.465c0-.005,0-.01.008-.014l.577-.021a.752.752,0,0,0-.124-.046q.994-21.325,1.832-42.656.368-9.392.7-18.785A47.275,47.275,0,0,1,838.177,69.8c.163.169.617.172,1.059.083q.717.857,1.392,1.74c6.37,8.321,9.856,18.148,12.1,28.046-.279.147-.464.359-.418.614q.51,2.807.92,5.628.076,1.067.152,2.133a.338.338,0,0,0,.177.269q.852,6.519,1.179,13.085c-.054.4-.126.79-.206,1.184q2.169-.129,4.339-.17M836.9,49.727c.48-.286.942-.592,1.4-.9-.133.1-.263.194-.4.287a29.786,29.786,0,0,1-9.2,4.216,37.473,37.473,0,0,0,8.195-3.605m-20.242,4.336c.008-.213.014-.427.021-.64.02.075.115.13.33.136A39.844,39.844,0,0,0,827.4,52.477c-.232.078-.463.156-.7.23a35.651,35.651,0,0,1-9.291,1.156,1.46,1.46,0,0,0-.753.2m2.378,2.563q.567.016,1.119.07a49.35,49.35,0,0,1,7.44,3.045q1,.613,1.969,1.279a50,50,0,0,0-10.527-4.393" transform="translate(-483.466 -2.916)"/>
    <path id="Path_9110" data-name="Path 9110" d="M810.192,6.142a1.028,1.028,0,0,0-1.075-1.072c.023-.244.044-.488.068-.731a1.22,1.22,0,0,0-2.074-.765,1.85,1.85,0,0,0-.51-.135,78.094,78.094,0,0,0-10.369-.519A1.134,1.134,0,0,0,795.2,4.6a1.162,1.162,0,0,0-.117-.012,1.193,1.193,0,0,0-1.21,1.118q-2.442,21.982-4.23,44.021-1.777,21.924-2.9,43.887-.638,12.437-1.067,24.882a1.182,1.182,0,0,0,1.21,1.118,1.268,1.268,0,0,0,.341-.05,1.194,1.194,0,0,0,1.494,1,53.384,53.384,0,0,1,13.929-1.23,1.116,1.116,0,0,0,.827-.273,1.168,1.168,0,0,0,1.4-1.068q.278-12.249.779-24.494t1.23-24.478q.41-6.9.891-13.787a1.029,1.029,0,0,0-.525-.911q1.372-18.406,2.37-36.833.305-5.676.574-11.353M803.5,48.792q-1.135,22.141-1.3,44.313-.088,12,.111,23.989a56,56,0,0,0-14.218,1.313q1.514-17.64,2.244-35.328.207-5.049.35-10.1a.965.965,0,0,0-.278-.732q1.375-20.895,3.332-41.752,1.168-12.4,2.544-24.791a.825.825,0,0,0-.155-.556c.032,0,.06.008.094.007a78.026,78.026,0,0,1,10.369.519c.014,0,.027,0,.041,0Q804.614,27.2,803.5,48.792" transform="translate(-472.91 -1.751)"/>
    <path id="Path_9111" data-name="Path 9111" d="M905.872,194.14q-1.225-5.829-2.847-11.578a71.57,71.57,0,0,0-3.346-9.92,22.136,22.136,0,0,0-6.7-8.954,1.322,1.322,0,0,0-1.711,0,1.066,1.066,0,0,0,0,1.581c5.461,4.084,7.362,10.737,9.1,16.74a175.454,175.454,0,0,1,4.978,22.734c.649,4.32,1.119,8.664,1.436,13.016a1.2,1.2,0,0,0,1.21,1.118,1.177,1.177,0,0,0,1.21-1.118,177.517,177.517,0,0,0-3.325-23.619" transform="translate(-536.256 -98.337)"/>
    <path id="Path_9112" data-name="Path 9112" d="M288.781,73.927q-.035-10.759-.069-21.511-.035-10.843-.07-21.686c0-1.061-1.8-1.1-2.732-.56,0-.008,0-.016,0-.023,0-.264-.213-.408-.5-.463-.111-.194-.437-.254-.792-.212-.043-.451-.55-.657-1.041-.725a3.274,3.274,0,0,0-1.547.2l-3.043.6a2.375,2.375,0,0,0-1.008.47c0-.166.007-.333.012-.5.015-.568-3.222-.176-3.246.723-.009.322-.014.645-.022.967a.838.838,0,0,0-.107.08c-.47.086-.922.258-.926.493q-.116,8.569-.233,17.138c0,.132.457.147.931.074,0,.368-.012.736-.016,1.1q-.107,2.2-.26,4.4a.361.361,0,0,0,.222.36q-.05,6.731-.037,13.462-2.261-.026-4.523-.044c-.02-.081-.1-.153-.294-.2a37.076,37.076,0,0,0-12.261-1.083,3.737,3.737,0,0,0-2.054.6c-.385.345-.25.595.331.66l.77.086q-9.417.169-18.823.65l-.055-17.022q-.035-10.843-.07-21.686c-.005-1.431-3.281-1.01-3.277.2l.015,4.7a1.173,1.173,0,0,0-.84-.735q0-1.43-.006-2.859a1.019,1.019,0,0,0,.511-.648.637.637,0,0,0-.143-.441c.121-.151.223-.35.025-.5a1.28,1.28,0,0,0-.713-.189.508.508,0,0,1-.03-.073.987.987,0,0,0,.443-.6c.047-.539-.513-.773-1.047-.848a3.269,3.269,0,0,0-1.547.2l-3.043.6a2.367,2.367,0,0,0-1.007.47c0-.166.007-.333.011-.5.015-.568-3.222-.176-3.246.723q-1.034,38.75.284,77.51.318,9.285.782,18.565c-.2.109-.355.258-.328.461l.687,5.187c.043.324.758.273.979.237a1.284,1.284,0,0,0,.985-.551c.063-.126.107-.256.161-.385a1.856,1.856,0,0,0,.716.012,2.511,2.511,0,0,0,.4-.1.446.446,0,0,0-.189.242c-.058.371.551.43.846.387l2.5-.36c.027,0,.052-.01.078-.015a.175.175,0,0,0,.06.06,5.281,5.281,0,0,0,2.026.758,4.333,4.333,0,0,0,1.075.042,3.366,3.366,0,0,0,1.1.041,2.1,2.1,0,0,0,.834-.265c.153-.094.333-.23.29-.414l-.049-.207a1.027,1.027,0,0,0,.626-.664,1.522,1.522,0,0,0-.051-.593.83.83,0,0,0,.4-.661l-.172-53.244q18.135-.3,36.232.974a.829.829,0,0,0,.537.375c.041.01.081.014.122.023q.109,10.814.4,21.626c-.268.136-.459.328-.442.559.067.925.1,1.851.1,2.777a.4.4,0,0,0-.2.324c.041,1.1.065,2.2.088,3.3-.071,1-.164,1.991-.3,2.983-.03.219.116.35.339.412.014,3.563-.058,7.126-.238,10.687-.008.166.283.228.644.207q-.125,4.867-.249,9.733c-.007.289.694.3,1.26.152a4.448,4.448,0,0,1-.063.468.427.427,0,0,0,.23.418,1.2,1.2,0,0,0,.665.131,1.9,1.9,0,0,0,.274-.046,1.35,1.35,0,0,0,.718.056c.019.075.037.15.057.225.075.3.869.155,1.078.106.233-.056.784-.191.871-.451.425-.1.811-.284.826-.525,0-.129.008-.258.013-.387l.484,0c.009,0,.017,0,.027,0a4.709,4.709,0,0,1-.19.846c-.1.31.621.238.794.212a3.179,3.179,0,0,0,.657-.168,1.583,1.583,0,0,0,.793,0,3.417,3.417,0,0,0,.367-.089l2.615.158a2.5,2.5,0,0,0,1.389-.309l.008-.006c.8-.088,1.585-.489,1.584-1.084q-.09-27.827-.18-55.594M227.428,118.5q-.371-8.518-.627-17.039a2.9,2.9,0,0,0,.652.01c.072,5.676.082,11.353-.025,17.03m.922-87.057c-.492.119-1.5.409-1.437.99,0,.015,0,.03,0,.045-.111.031-.22.064-.321.1q.023-.923.041-1.845a1.264,1.264,0,0,0,.126.053c0,.008,0,.016,0,.023.1.223.365.268.6.32l1.215.268c-.094.015-.178.029-.231.043M229.418,42.2a2.386,2.386,0,0,0,.57-.262l.028,14.708c-.046-1.012-.106-2.022-.15-3.034q-.247-5.706-.448-11.413m2.03,87.83-1.505.217c.045-.082.088-.165.131-.248a1.888,1.888,0,0,0,.549-.052,2.592,2.592,0,0,0,.642-.267l.187,0c-.136.114-.212.26,0,.353m-1.373-2.246a.744.744,0,0,0,.369-.54c0-.025,0-.05,0-.075a3.013,3.013,0,0,0,1.057.02q.032.355.063.711c-.5-.056-.992-.1-1.491-.115M233.6,69.519a1.522,1.522,0,0,0-.312.05q-.01-5.093-.019-10.185a1.486,1.486,0,0,0,.871.215q.016,5.021.032,10.043a1.193,1.193,0,0,0-.573-.122m3.864,4.306v-.351c.607-.024,1.215-.033,1.822-.054-.017.187.1.314.3.391-.706.009-1.412,0-2.117.014m16.225-2.912q-8.118.034-16.233.4v-.252c5.469-.279,10.942-.461,16.418-.581-.205.166-.266.315-.184.434m19.124-.519q.749.01,1.5.015c0,.115,0,.23,0,.345l-2.064-.242c.187-.041.376-.075.563-.117M261.367,74.1l12.972.114q0,.279,0,.559c-4.32-.3-8.647-.506-12.976-.673M279.934,32.73a5.218,5.218,0,0,0-2.019.3q.013-.548.025-1.1a.679.679,0,0,0,.139.1l.31.134a2.261,2.261,0,0,0,.788.082l.442-.062a2.653,2.653,0,0,0,.377-.115q-.03.328-.061.656m1.25,21.339c-.08-1.858-.146-3.717-.219-5.576a2.214,2.214,0,0,0,.352-.176l.017,8.785c-.046-1.012-.106-2.022-.15-3.034m3.41,9.7c.4-.093.754-.246.756-.447l.093-7.941.033,10.123c-.388.088-.72.227-.726.41-.04,1.293-.092,2.585-.145,3.878q-.005-3.012-.012-6.023m.073,38.253a1.63,1.63,0,0,0,.926-.371q0,1.027.006,2.055a3.365,3.365,0,0,0-.928.231Zm.016,8.668q0-1.871-.007-3.744a1.237,1.237,0,0,0,.191.021,2.8,2.8,0,0,0,.716-.082l.026-.007,0,1.157q.007,2.39.015,4.78a2.2,2.2,0,0,0-.745.264c-.066-.8-.136-1.592-.2-2.389m.713,8.4a1.181,1.181,0,0,0,.252.021l.01,2.983q-.131-1.5-.262-3" transform="translate(-134.211 -17.016)" fill="#f89e99"/>
    <path id="Path_9113" data-name="Path 9113" d="M290.658,127.893c0-.032-.109-.045-.271-.043q.2-15.209-.068-30.419-.188-10.393-.606-20.78c.146-.041.238-.09.237-.147l-.46-23.774a8.872,8.872,0,0,0-.083-4.3c-.006-.024-.039-.043-.082-.059l-.016-.814a4.449,4.449,0,0,0-2.352.187c-.579-.044-1.132.2-1.09.817q1.063,15.523,1.629,31.072c.027.761.048,1.522.074,2.283l-23.252.268q-8.442-.082-16.879-.4-5.131-.2-10.257-.49c.016-3.225.058-6.45.149-9.673,0-.072-.238-.093-.562-.069q.288-8.329.577-16.659a.24.24,0,0,0,.083-.168q.052-.758.1-1.516a.28.28,0,0,0,.107-.182,30.108,30.108,0,0,0,.327-6.186c-.03-.6-2.115-1.459-2.164-.744q-.044.638-.087,1.275a.241.241,0,0,0-.214.239q-.009,1.58-.018,3.161-.028.414-.057.828a.627.627,0,0,0-.321.485q-.394,11.371-.788,22.742a.772.772,0,0,0,.654.776q-.188,9.338.04,18.678.282,11.025,1.16,22.028c.211,2.648.459,5.292.722,7.936a.715.715,0,0,0-.208.622c.093.545.176,1.09.253,1.637a.779.779,0,0,0-.214.579q.373,5,.746,10.008c.091,1.224,2.264.667,2.306-.384a58.8,58.8,0,0,0-.261-8.323.272.272,0,0,0,.129-.224q-1.212-10.97-1.836-21.988t-.644-22.046c0-.2,0-.4,0-.594.155.22.5.792.782.789l27.348-.315q5.586.059,11.173.015,3.719-.032,7.437-.117c0,.015-.016.029-.013.045.022.16.208.248.352.295a2.691,2.691,0,0,0,.842.114h2.049a2.9,2.9,0,0,0,.506-.05q.418,13.267.48,26.541.029,7.167-.058,14.335c-.491.137-.91.313-.873.423a23.8,23.8,0,0,1,1.18,6.859c-.021,1.067-.062,2.134-.13,3.2-.005.09,2.255-.061,2.307-.533a23.629,23.629,0,0,0,.13-3.2c.027-1.346.022-2.692-.023-4.039" transform="translate(-141.04 -27.583)" fill="#fff"/>
    <path id="Path_9114" data-name="Path 9114" d="M640.655,91.179c-.67-7.649-1.14-15.362-2.238-22.977a107.312,107.312,0,0,0-1.371-11.67,35.96,35.96,0,0,0-2.6-8.406,1.671,1.671,0,0,0-1.371-.716C630.3,41.02,625.2,35.187,617.945,33.426a18.553,18.553,0,0,0-10.788-.643,24.918,24.918,0,0,0-11.016,6.206,33.168,33.168,0,0,0-6.5,8.743q-.33-3.545-.776-7.078-.527-4.155-1.219-8.287c-.143-.855-2.324-1.033-2.459-.1-.155,1.076-.278,2.154-.375,3.235l-.073-.049c-.137-.087-1.046-.562-1.039-.107q.009.575.017,1.151c-.033-.033-.067-.065-.1-.1q-.015-.269-.029-.539c-.026-.467-.515-.875-.9-1.131a2.647,2.647,0,0,0-2.017-2.088,2.493,2.493,0,0,0-2.6.961c-.032-.007-.063-.021-.1-.026l-.073-1.055c-.007-.1-2.375.338-2.341.837l.139,2.008a1,1,0,0,0-.022.461.535.535,0,0,0,.066.177l2.343,33.912q.5,10.869,1.5,21.707l2.074,30.024c0,.023.118.019.295-.005a11.211,11.211,0,0,0,.336,5.353c.066.212.619.021.721-.015a3.067,3.067,0,0,0,.339-.145,3.22,3.22,0,0,0,1.57-.738l.315,1.731c.106.582,1.365-.184,1.584-.351.027-.021.053-.044.08-.065a.536.536,0,0,0,.193,0l2.609-.529.033.014a1.427,1.427,0,0,0,.982.3,2.266,2.266,0,0,0,.42.016,1.863,1.863,0,0,0,.27-.04c.443-.053.792-.174.775-.34a2.081,2.081,0,0,0,.377-.342c.5.552,1.758,1.161,1.946.805a8.729,8.729,0,0,0,.552-4.912q-.256-2.977-.521-5.954-.521-5.955-1.042-11.909-.935-10.684-1.869-21.368a66.672,66.672,0,0,0,.162-12.938c.045-.347.08-.688.131-1.037a1.6,1.6,0,0,0,.216-.468q1.511-5.671,3.023-11.342a21.619,21.619,0,0,1,9.156-10.458,14.425,14.425,0,0,1,11.953-1.02,12.427,12.427,0,0,1,5.239,3.7,24.184,24.184,0,0,1,3.659,6.669c.106.271.207.544.308.817.019.113.032.227.05.339a1.2,1.2,0,0,0-.373,1.046q1.35,12.509,2.973,24.985c.043.328.09.656.133.984a.363.363,0,0,0-.049.221q.216,4.179.433,8.358a1.023,1.023,0,0,0-.428,1.072c.232,1.061.444,2.127.649,3.193q.46,8.885.92,17.77.226,4.36.451,8.719a2.177,2.177,0,0,0,.687,1.419c.153.148.823.683.959.222l.538-1.836c.019.211.037.422.059.634a2.214,2.214,0,0,0,.887,1.38c.3.212.7.34.784-.145.019-.115.033-.23.05-.346a1.442,1.442,0,0,0,1.309.631l6.538-.426a1.027,1.027,0,0,0,.94-1.226q-.251-1.374-.5-2.748c.011.006.021.014.032.019.475.212.792-.015.749-.5Zm-56.2-9.5q-.164-2.332-.328-4.664c.048.012.1.024.145.032.051,1.463.169,2.923.365,4.374a.368.368,0,0,0,.072.158,1.7,1.7,0,0,0-.255.1m-.529-30.826q-.343-5.015-.686-10.03c.032.013.065.024.1.035.179.863.341,1.73.48,2.6l.109,7.4m6.887,68.132-.422-2.422a.2.2,0,0,0-.013-.029q-.4-5.715-.8-11.43l-.325-4.636q.432,4.707.865,9.415.414,4.506.828,9.012a.628.628,0,0,0-.133.09m-3.631-65.945q.178-.8.307-1.614c.018.248.035.5.053.745q-.183.433-.36.869m5.79,70.731-.177-.6c.069,0,.137-.009.2-.016,0,.208-.01.414-.026.62m.535-67.688c-.135.258-.271.514-.4.775.195-.609.424-1.207.669-1.8q-.137.512-.271,1.023m44.455,65.9a.655.655,0,0,0-.2.294l-.386.027-.014-.209c.028-.012.057-.02.084-.033a.872.872,0,0,0,.262-.169,4.366,4.366,0,0,0,.467-.075,1.055,1.055,0,0,0-.217.164m1.763-9.216a1.548,1.548,0,0,0,.172-.127c.086.271.169.544.243.818a2.635,2.635,0,0,0-.423-.016Zm-5.271-46.88q.294,2.828.555,5.66-.226-2.055-.565-4.1c.013-.521.019-1.043.01-1.564m.972,16.906a77.314,77.314,0,0,0-.165-8.472c.107,1.194.217,2.388.322,3.583q.746,8.517,1.326,17.047c-.6-3.853-1.3-7.695-1.953-11.537a.693.693,0,0,0,.471-.621M611.492,35.135a1.037,1.037,0,0,0,.352.208c.448.149.884.318,1.315.5-.2-.04-.4-.081-.6-.116a21.383,21.383,0,0,0-2.872-.3,17.384,17.384,0,0,1,1.8-.285m-2.59,6.241c.229-.063.471-.127.717-.189.38-.011.76-.006,1.14.006-.625.032-1.244.1-1.858.182ZM597.2,50.7a10.54,10.54,0,0,1,.848-1.535c.7-.476,1.427-.921,2.174-1.328A23.918,23.918,0,0,0,597.2,50.7m9.117-6.22a.533.533,0,0,0-.658-.418,18.972,18.972,0,0,0-2.784.549c.071-.039.139-.082.211-.12a19.98,19.98,0,0,1,2.785-.742,25.44,25.44,0,0,1,6.975-.345,20.644,20.644,0,0,1,3.639.629,17.852,17.852,0,0,0-10.167.446M621.754,42.4c-.238-.212-.48-.421-.731-.623a1.471,1.471,0,0,0-.834-.257q-.7-.356-1.42-.663a1.05,1.05,0,0,0-.07-.08,7.791,7.791,0,0,0-3.533-1.787,24.265,24.265,0,0,0-3.519-1.347,19.394,19.394,0,0,1,9.687,4.125c.225.252.439.513.655.773-.076-.049-.157-.093-.234-.141m9.837,76.671-.061-1.191a1.428,1.428,0,0,0,.37.139l-.309,1.052m-.639-33.091q-.779-5.859-1.5-11.726a1.884,1.884,0,0,0,.175-.1c.31,1.956.625,3.912.922,5.87.119,1.985.259,3.969.4,5.953M626.41,43.563a37.063,37.063,0,0,0-5.91-5.956,1,1,0,0,0-1.086-.023,24.918,24.918,0,0,0-3.166-2.248c7.207,1.387,12.432,7.528,14.9,13.824a44,44,0,0,1,2.367,9.164,37.742,37.742,0,0,0-7.107-14.761" transform="translate(-346.435 -19.046)" fill="#f2c946"/>
    <path id="Path_9115" data-name="Path 9115" d="M576.391,126.8c1.329-.344,2.663-.658,4-.933,0-.072,0-.143-.012-.217-.159-1.646-.467-3.288-.7-4.925q-.348-2.488-.678-4.977c-.033-.256-.065-.511-.1-.767q-1.029-9.5-1.889-19.008-1.808-20.11-2.839-40.28-.578-11.283-.911-22.576c-.015-.49-.65-.918-1.031-1.124-.172-.094-1.043-.48-1.029,0,.006.186.013.371.02.556a1.4,1.4,0,0,0-.791.552.827.827,0,0,0-.891.92q-.168,18.493.9,36.969,1.063,18.344,3.349,36.589,1.2,9.573,2.74,19.1a1.224,1.224,0,0,0-.146.126" transform="translate(-342.807 -19.113)" fill="#e8a538"/>
    <path id="Path_9116" data-name="Path 9116" d="M658.716,85.6q.082.9.149,1.8c.037.492.064.986.1,1.479,0,.915,0,1.83.014,2.746.068,4.245.259,8.486.535,12.722,0,.011,0,.019,0,.03q.685,9.163.9,18.353c.042,1.779.066,3.557.081,5.336.654,4.318,1.156,8.657,1.449,13.012.014.1.029.206.043.309a5.637,5.637,0,0,0,.876.75c1.625-.148,3.252-.293,4.878-.423q-1.52-11.658-2.71-23.355-.445-4.395-.838-8.795l-.362-10.638c-.3-8.708-.312-17.664-3.181-25.983a20.36,20.36,0,0,0-1.146-4.4,11.694,11.694,0,0,0-4.4-5.423A14.08,14.08,0,0,0,642.854,61.7a9.77,9.77,0,0,0-8.027,5.68.96.96,0,0,0-.051.623c-.125.207-.252.413-.366.627-.134.251.031.56.316.831,1.729-2.206,4.219-4.281,6.648-4.61a14.631,14.631,0,0,1,2.171-1.025,10.114,10.114,0,0,1,2.461.013c.287.038.568.092.844.156a2.2,2.2,0,0,1,1.105.064c5.51,1.723,7.887,6.888,9.05,12.208.03.006.058.019.088.023q.287.98.517,1.98l.132,1.946a45.05,45.05,0,0,1,.855,5.3,1.2,1.2,0,0,0,.117.082m4.584,54.528a7.69,7.69,0,0,1-.443-1.82,19.5,19.5,0,0,1-.067-2.208q.254,2.013.51,4.027M656.233,68.78c-.31-.477-.641-.941-.99-1.391l-.118-.172a11.014,11.014,0,0,1,1.225,1.616c-.039-.018-.077-.039-.117-.053" transform="translate(-381.834 -36.666)" fill="#e8a538"/>
    <path id="Path_9117" data-name="Path 9117" d="M251.891,391.81c-.09.036-.179.072-.268.11a7.008,7.008,0,0,1-1.438.745c-.661.388-1.3.811-1.918,1.2-5.47,5.254-11.086,10.366-16.62,15.519q.236-10.96.458-21.921.18-8.546.359-17.093c.049-2.327.461-4.979-.247-7.253q.208-3.54.416-7.08a2.752,2.752,0,0,0-1.98-2.487,1.893,1.893,0,0,0-1.626-.282,3.638,3.638,0,0,0-2.284,1.775,3.6,3.6,0,0,0-.4,1.555,8.125,8.125,0,0,0-.369.756,3.464,3.464,0,0,0-.937,1.084,1.852,1.852,0,0,0-.149,1.546c0,.152.009.3.011.456a103.55,103.55,0,0,1-20.625,40.137c-1.989,2.372-4.8,6.227-8.364,5.7a3.406,3.406,0,0,1-1.283-.44,2.592,2.592,0,0,1-.878-.9,11.105,11.105,0,0,1-1.359-3.616,71,71,0,0,1-1.205-12q-.288-6.527.076-13.061a130.377,130.377,0,0,1,4.9-28.9,3.222,3.222,0,0,0-1.028-2.858c-.3-.321-1.823-1.548-2.117-.543a91.051,91.051,0,0,1-24.741,40.532c-1.229,1.161,1.654,4.92,2.742,3.892a92.567,92.567,0,0,0,17.641-22.924c-.24,2.022-.442,4.049-.586,6.081a131.3,131.3,0,0,0-.241,14.184,88.2,88.2,0,0,0,1.164,13.167c.669,3.506,2.063,7.08,4.761,9.523a6.86,6.86,0,0,0,9.179.309,27.963,27.963,0,0,0,4.213-4.413q1.979-2.369,3.825-4.847a103.427,103.427,0,0,0,11.55-19.825c-.8,12.58-.331,25.271-.217,37.854,0,.271,0,.543.006.814-3.711,3.669-7.325,7.434-10.751,11.373-6.189,7.116-12.116,14.812-15.946,23.488-3.686,8.35-5.6,18.11-2.257,26.9,1.624,4.267,4.651,9.657,9.508,10.718A8.069,8.069,0,0,0,209.5,489.1a1.908,1.908,0,0,0,2.038-.207c12.087-10.509,16.46-26.8,18.284-42.131,1.125-9.452,1.407-19,1.635-28.509.018-.757.032-1.515.05-2.272,7.784-7.34,15.807-14.473,23.406-22.013a2.88,2.88,0,0,0-.344-.494,6.326,6.326,0,0,0-2.673-1.662M214.563,473.22c-1.7,4.034-3.583,8.381-6.944,11.326a8.007,8.007,0,0,1-5.259,2.312,5.41,5.41,0,0,1-4.462-2.888c-4.7-7.4-3.157-17.13-.191-24.862,3.289-8.575,8.746-16.194,14.6-23.2,3.176-3.8,6.541-7.435,10.011-10.967-.1,16.4-1.328,33.04-7.754,48.278" transform="translate(-101.105 -206.803)" fill="#edad47"/>
    <path id="Path_9118" data-name="Path 9118" d="M311.42,409.658c-.05-.058-.11-.105-.163-.16q-4.994,5.265-10.175,10.349c-.391.382-.789.757-1.182,1.137q-3.015,2.845-6.1,5.611.24-9.979.051-19.963-.294-15.274-1.6-30.507c-.038-.443-.08-.887-.12-1.33a2.952,2.952,0,0,0-.143-1.591c-.026-.277-.049-.555-.075-.832-.044-.468-.64-.937-.978-1.2a3.656,3.656,0,0,0-.551-.335,1.53,1.53,0,0,0-.688-.222c-.211-.111-.547-.253-.512-.027,0,.027.008.054.012.081a1.2,1.2,0,0,0-.867,1.262c.319,7.07.631,14.142.884,21.215a.83.83,0,0,0-.242.607l-.1,7.236a1.157,1.157,0,0,0,.051.326q0,.409-.005.818a1.126,1.126,0,0,0,.011.121q-.343,19.649-1.135,39.287c-.117,2.873-.25,5.745-.381,8.617,0,.009,0,.018,0,.026-.88,7.818-1.84,15.661-3.262,23.4-1.259,6.857-3.089,13.708-6.38,19.89a29.641,29.641,0,0,1-7.718,8.887,33.6,33.6,0,0,1-7.615,4.759c2.866,1.461,7.052.017,9.636-1.466,4.811-2.762,8.591-7.608,11.366-12.324,4.625-7.861,6.448-17.01,7.553-25.958.8-6.472,1.381-12.978,1.823-19.491a22.786,22.786,0,0,1,.179-2.746q.072-1.161.14-2.322l.094,0c.035-.346.076-.692.113-1.038l.09-6.663a2.248,2.248,0,0,1,.114-.671c.059-1.452.1-2.9.151-4.356a.7.7,0,0,0,.345-.165q9.3-8.545,18.04-17.672a3.065,3.065,0,0,0-.653-2.59m-28.31,79.16c-.25.511-.516,1.018-.788,1.522q1.008-1.9,1.854-3.882c-.336.794-.685,1.583-1.066,2.36" transform="translate(-157.961 -222.989)"/>
    <path id="Path_9119" data-name="Path 9119" d="M233.026,407.707c1.174-.252,1.928-.867,3.015-2.428a5.824,5.824,0,0,1-5.3-1.116c-1.451-1.325-1.969-3.525-2.287-5.379-.671-3.913-.284-7.919-.185-11.829a110.439,110.439,0,0,1,1.351-12.674q.907-6.4,1.814-12.8,1.02-7.2,2.04-14.4c.207-1.462-2.2-1.174-2.373.059q-.069.49-.139.98a1.424,1.424,0,0,0-.908.98,174.61,174.61,0,0,0-3.935,26.2c-.785,9.666-1.584,19.539,1.174,28.993.789,2.706,2.367,4.13,5.736,3.4m-5.361-7.086c-.045-.266-.082-.533-.113-.8a24.417,24.417,0,0,0,2.967,5.966,8.545,8.545,0,0,1-2.853-5.166" transform="translate(-135.655 -208.325)"/>
    <path id="Path_9120" data-name="Path 9120" d="M238.453,607.519a7.33,7.33,0,0,0,1.043.977c.595.454,3.486,2.156,4.138,1.3a2.136,2.136,0,0,1,.137-.187,1.986,1.986,0,0,0-.369.028.961.961,0,0,1-.453-.031.478.478,0,0,0-.031-.212,48.8,48.8,0,0,1-2.24-26.876,48.188,48.188,0,0,1,10.747-21.843,66.756,66.756,0,0,1,9.794-8.6,1.151,1.151,0,0,0,.111.057,12.086,12.086,0,0,1,1.7-1.527c0-.361.01-.723,0-1.084,0-.072,0-.145,0-.217-.008-.5-.026-1.008-.047-1.512a.163.163,0,0,0-.034.019,28.113,28.113,0,0,0-2.676,2.536c-.037.021-.072.045-.107.068a1.575,1.575,0,0,0-.544.217,49.38,49.38,0,0,0-10.278,8.968A55.654,55.654,0,0,0,241,571.128c-5.129,9.535-8.271,23.2-4.211,33.618,1.1,2.827,3.819,5.2,7.013,4.917l-1.831-.5" transform="translate(-141.413 -329.723)"/>
    <path id="Path_9121" data-name="Path 9121" d="M190.343,396.739q-3.119,5.023-6.693,9.762a74.286,74.286,0,0,1-7.583,8.891,26.051,26.051,0,0,1-5.1,3.884c-.5.287.246.942.494,1.092a1.706,1.706,0,0,0,1.646.187,32.843,32.843,0,0,0,8.512-7.56c2.644-3.112,5.125-6.359,7.447-9.7.314-.451.617-.91.922-1.367.137-1.728.276-3.455.357-5.186" transform="translate(-102.805 -238.804)"/>
    <path id="Path_9122" data-name="Path 9122" d="M671.847,362.992q.064-.8.129-1.592a.976.976,0,0,0-.105-.508c0-.254.008-.509.008-.763a2.249,2.249,0,0,0,.286-.474q-.027-1.5.024-3a1.754,1.754,0,0,0-1.478-1.236l-15.615-.776c-1.623-.081-2.16,2.006-1.759,3.588a1.291,1.291,0,0,0-.239.709c.038,1.006.068,2.015.1,3.023a.957.957,0,0,0-.5.718c-.123,10.917-.922,21.828-1.853,32.717-.016.191-.033.394-.05.586L648.808,405q-.68,2.167-1.5,4.265a18.873,18.873,0,0,1-2.181,2.865A8.121,8.121,0,0,1,638.233,415a5.71,5.71,0,0,1-1,.348,5.35,5.35,0,0,1-3.712-.518c-2.447-.215-4.687-1.7-6.275-4.838-2.785-5.507-2.719-13.162-2.581-19.642.174-8.136,1.056-16.276,2.014-24.354.365-3.078.763-6.152,1.122-9.231.137-1.177.253-2.356.383-3.535.032-.293.037-.963.045-1.4-5.691-.725-11.493-.469-17.233-.79a1.665,1.665,0,0,0,.215.794,2.579,2.579,0,0,0-1.514,1.794c-1.773,14.9-2.906,29.9-3.368,44.891-.149,4.826-.323,9.816.63,14.4a.653.653,0,0,0-.08.49,27.157,27.157,0,0,0,12.449,18.246c7.174,4.352,15.589,4.57,23.449,2.626,7.263-1.8,14.864-4.933,19.571-13.059,3.985-6.88,5.615-15.46,6.583-23.7.477-4.062.8-8.144,1.123-12.225a175.331,175.331,0,0,0,1.794-22.3m-56.547-1.7c-.283,2.623-.576,5.244-.9,7.861-.283,2.265-.592,4.525-.913,6.784q-.116.74-.231,1.48c.569-7.148,1.309-14.283,2.265-21.389a3.261,3.261,0,0,0-.143-1.339l.574-.01c-.017.039-.038.07-.054.112a2.84,2.84,0,0,0,.117,2.468,22.412,22.412,0,0,0-.713,4.034m4.9,58.092c-.059-.5-.112-1-.168-1.508a1.944,1.944,0,0,0,.5.119c.047.265.1.529.147.793a1.43,1.43,0,0,0-.48.6m5.047-8.781q0-.511,0-1.021.361.774.776,1.514c-.262-.156-.518-.328-.777-.492m6.461,14.524c-.415-.034-.831-.076-1.248-.135a1.891,1.891,0,0,0,.113-.348l.341.066c.3.115.6.214.9.311-.034.035-.072.069-.1.106m4.942,6.452c.1-.029.191-.053.287-.084a17.2,17.2,0,0,0,1.8-.718c.081.06.158.129.241.183a5.745,5.745,0,0,0,.714.392,21.759,21.759,0,0,1-3.038.226m7.887-4.968c.33-.348.658-.707.972-1.085a1.168,1.168,0,0,0,.254.3q-.6.418-1.226.789m14.8-10.9a46.023,46.023,0,0,0,1.87-5.109c.114.007.188-.014.206-.071q.357-1.186.713-2.385l.113.005a44.33,44.33,0,0,1-2.9,7.559" transform="translate(-364.888 -211.297)" fill="#9cdbd9"/>
    <path id="Path_9123" data-name="Path 9123" d="M674.918,366.3q-.087-2.06-.223-4.118c-.06-.916-2.512-1.163-2.462-.409a169.683,169.683,0,0,1-.878,31.72,151.607,151.607,0,0,1-2.667,15.617c-1.047,4.545-2.6,9.127-5.887,12.565a13.379,13.379,0,0,1-4.9,3.358,11.022,11.022,0,0,1-6.568.293A21.1,21.1,0,0,1,640.362,418c-5.544-6.87-6.124-16.034-5.361-24.481.416-4.6,1.207-9.161,1.939-13.72l2.591-16.135.628-3.912c.136-.847-2.326-1.259-2.462-.409q-1.335,8.312-2.669,16.624c-.793,4.939-1.676,9.874-2.251,14.844-1.01,8.728-.936,18.163,4.1,25.743,4.988,7.5,16.09,13.644,24.748,8.623,3.972-2.3,6.512-6.3,8.046-10.523a52.874,52.874,0,0,0,1.979-7.479q.825-4.037,1.45-8.111a169.194,169.194,0,0,0,1.814-32.769" transform="translate(-380.572 -216.016)" fill="#6ebab6"/>
    <path id="Path_9124" data-name="Path 9124" d="M671.587,395.583a365.3,365.3,0,0,0,2.975-40.792q.041-2.461.048-4.924c0-1.443-2.49-1.361-2.495.086a363.749,363.749,0,0,1-2.279,39.554c-.363,3.221-.757,6.441-1.23,9.648a47.327,47.327,0,0,1-2.135,9.262,24.471,24.471,0,0,1-8.567,11.351,23.285,23.285,0,0,1-13.043,4.582,21.915,21.915,0,0,1-13.082-4.12,21.277,21.277,0,0,1-8.211-11.288,41.756,41.756,0,0,1-1.284-8.927q-.326-4.871-.489-9.752a294.311,294.311,0,0,1,1.284-39.01q.24-2.4.518-4.8a1.141,1.141,0,0,0-.918-1.331c-.53-.111-1.432.176-1.508.825a297.125,297.125,0,0,0-1.976,40.5q.1,5,.372,10a88.243,88.243,0,0,0,.842,9.662,24.614,24.614,0,0,0,2.666,8,23.448,23.448,0,0,0,4.575,5.777,24.384,24.384,0,0,0,28.213,3.816,27.256,27.256,0,0,0,10.87-10.165c3.24-5.429,4.055-11.8,4.851-17.953" transform="translate(-372.67 -207.72)" fill="#6ebab6"/>
    <path id="Path_9125" data-name="Path 9125" d="M465.833,363.164c-.27-.4-.557-.794-.854-1.186-.125-.307-.232-.62-.373-.923a21.585,21.585,0,0,0-11.285-10.55,24.387,24.387,0,0,0-5.857-1.612c-7.128-3.058-15.8-2.054-22.457,1.423-7.15,3.732-11.659,10.11-14.684,16.469-6.547,13.765-8.942,29.585-.743,43.143l.006.016a1.013,1.013,0,0,0,.121.19c.285.464.549.933.859,1.392a35.484,35.484,0,0,0,18.171,13.756c7.587,2.484,16.272,2.749,23.695-.3a28.406,28.406,0,0,0,15.036-15.349c3.264-7.535,3.675-15.874,3.84-23.807.161-7.766-.828-15.772-5.476-22.666m.911,21.62a80.44,80.44,0,0,1-.773,10.688c-.252-.1-.522-.186-.807-.271a77.981,77.981,0,0,0,1.58-10.417m-5.712-22.249c.339.393.652.8.952,1.205.095.481.15.969.223,1.455-.191-.288-.412-.564-.626-.842a14.861,14.861,0,0,0-2.312-3.611,19.553,19.553,0,0,1,1.763,1.794m-12.852-6.972c.023.667.054,1.334.083,2a1.236,1.236,0,0,0-.255,1.616c.12.184.227.374.345.559.013.341.026.682.043,1.023-.35-.011-.61.143-.579.619.006.093.007.186.013.279-.269-1.472-.554-2.943-.877-4.41a4.114,4.114,0,0,0-1.131-1.884,20.014,20.014,0,0,1,2.358.2m-3.255,13.5c.021.22.033.441.052.661l-.017-.027c-.285-.783-.582-1.562-.881-2.341-.027-.182-.069-.363-.094-.545.314.75.619,1.5.939,2.252M432.789,412.07a16.1,16.1,0,0,1,.476-1.665c.117-.332-.523-.734-1.414-1.083.209-.821.424-1.641.623-2.463a5.268,5.268,0,0,0,.841.436q.127,2.632.29,5.262-.4-.253-.816-.487M429.564,357.9a7.336,7.336,0,0,0-1.9.508,16.652,16.652,0,0,1,3.369-2.871,21.655,21.655,0,0,0-1.474,2.363m10.75-4.033a1.3,1.3,0,0,0,.718-.026c.105-.037.214-.062.32-.1A4.792,4.792,0,0,0,442.724,355c.072.48.151.96.225,1.44a7.128,7.128,0,0,0-1.753-1.613,5.266,5.266,0,0,0-.93-.441c.016-.176.033-.352.049-.528m-5.949,4.086q-.541,6.074-.875,12.159a5.582,5.582,0,0,0-2.119-1.492,69.045,69.045,0,0,1,1.643-6.986,31.173,31.173,0,0,1,1.35-3.681m-18.392,54.991c-.642-.743-1.23-1.5-1.775-2.275a4.271,4.271,0,0,0,.743-.305c.332.556.658,1.113,1.012,1.661a1.824,1.824,0,0,0,1.241.664c.084.2.16.393.246.587.295.661.594,1.358.924,2.052a23.791,23.791,0,0,1-2.391-2.383m2.735-48.269c-.84.749-1.657,1.514-2.44,2.3a31.663,31.663,0,0,1,9.641-10.823,26.292,26.292,0,0,1,6.359-3.108,26.478,26.478,0,0,0-11.756,8.811,29.713,29.713,0,0,0-1.8,2.818m6.41,54.962a8.891,8.891,0,0,0,1.484-.681c.027.149.05.3.078.449a7.092,7.092,0,0,0,.267,1q-.93-.358-1.829-.772m8.7-.762a5.282,5.282,0,0,1-.252.97,2.7,2.7,0,0,1-.471-.526,3.553,3.553,0,0,1-.328-.633q-.121-.522-.2-1.045c.415.4.823.81,1.258,1.2,0,.012,0,.023,0,.034m.28,3.379a15.371,15.371,0,0,0,1.565-.683c.058.055.12.109.181.163a3.092,3.092,0,0,0,.381.743c-.711-.052-1.421-.123-2.126-.223m12.134-.7a22.842,22.842,0,0,0,6.338-3.641c.382.087.755.158,1.1.212-.131.1-.259.2-.4.293a24.885,24.885,0,0,1-7.039,3.137" transform="translate(-243.391 -208.908)" fill="#ef645d"/>
    <path id="Path_9126" data-name="Path 9126" d="M474.046,391.987c-.31-.485-1.119-.576-1.626-.569q-10.635.133-21.242.994c1.992-2.924,4.009-5.83,6.08-8.7q3.242-4.494,6.608-8.9c.853-1.116-1.073-2.7-1.926-1.588q-6.445,8.435-12.426,17.211-.067-6.05-.03-12.1.041-6.842.215-13.683c.016-.637-.849-.836-1.324-.721a1.343,1.343,0,0,0-1.071,1.3q-.333,13.24-.17,26.486-2.171-3.32-4.369-6.623-3.3-4.944-6.668-9.845a1.441,1.441,0,0,0-1.562-.512c-.371.089-1.169.568-.82,1.076q5.836,8.5,11.468,17.134-5.862.586-11.7,1.385-5.49.76-10.95,1.714c-.524.091-.529.577-.182.875a2.149,2.149,0,0,0,1.728.359q10.929-1.9,21.979-3c.14.215.281.428.42.642q-3.65,5.5-7.122,11.111-2.985,4.838-5.835,9.76c-.322.557.223,1.316.709,1.554a1.1,1.1,0,0,0,1.512-.463q5.485-9.464,11.5-18.606.164,7.733.49,15.461.294,6.836.721,13.666c.086,1.38,2.474.691,2.395-.582q-.837-13.439-1.159-26.9,3.593,5.6,7.111,11.24,3.133,5.053,6.2,10.146c.521.865,2.842.648,2.382-.563q-.331-.871-.662-1.742a.927.927,0,0,0-.723-.526q-7.03-11.6-14.407-22.98c0-.249-.007-.5-.012-.748.194-.283.388-.566.58-.851q6.162-.536,12.342-.838,5.461-.258,10.93-.324c.43-.005.9-.308.615-.755" transform="translate(-254.076 -219.04)" fill="#fff"/>
    <path id="Path_9127" data-name="Path 9127" d="M431.424,275.848c-.306-.628-1.52-.544-2.058.033.684-.021,1.37-.03,2.058-.033" transform="translate(-258.443 -165.775)" fill="#e57048"/>
    <path id="Path_9128" data-name="Path 9128" d="M485.984,120.527,480.61,86.964l-6.056-37.827-1.648-10.29a2.079,2.079,0,0,1-.347-.846c-.674-3.756-1.457-8.253-3.472-11.806-1.34-1.4-2.687-2.791-4-4.214h-.871a2.638,2.638,0,0,1-.922-.156c-.092,1.079,1.2,1.765,2.17,1.558a2.157,2.157,0,0,1,.329.486.979.979,0,0,0-.507,1.017q3.591,19.155,6.836,38.372c.136.8.267,1.61.4,2.415a10.239,10.239,0,0,1-.154,1.267.9.9,0,0,0,.531,1q1.234,7.408,2.416,14.825a1.053,1.053,0,0,0-.248-.136,1.078,1.078,0,0,0-.844-.606l-.371.021a.966.966,0,0,0-.332-.112,18.072,18.072,0,0,0-6.983.481c-.283.032-.568.059-.851.094a.493.493,0,0,0-.449.437c-1.8-.129-3.636-.279-5.443-.233-.194,0-.391.018-.589.035q3.032-13.912,5.31-27.975.724-4.478,1.373-8.969a1.156,1.156,0,0,0-.241-.832c0-.093-.005-.187-.007-.28q.468-2.2.923-4.4c.178-.858-2.026-1.757-2.166-1.079-.066.318-.137.636-.2.955-.177-.053-.36-.047-.436.145l-.569,1.431a1.535,1.535,0,0,0,.365,1.437q-3.034,14.295-6.6,28.469-1.154,4.569-2.363,9.123a.579.579,0,0,0,.1.465,54.057,54.057,0,0,0-2.328,7.877c-.054.252.129.444.414.566q-.327.9-.637,1.812a.943.943,0,0,0-.324.584q-.029.286-.057.572-1.242,3.825-2.148,7.749a138.483,138.483,0,0,0-2.3,14.793q-.508,4.31-1.016,8.62a1.175,1.175,0,0,0,.705,1.1c.005.073.012.146.016.219.2-.007.408,0,.612-.01a1.205,1.205,0,0,0,.366-.006c.54-.01,1.081-.024,1.621-.025a1.981,1.981,0,0,1,.2-.129,12.313,12.313,0,0,0,1.368-.928q3.257-14.6,5.515-29.393c.348-2.291.67-4.585.979-6.881l14.593-.744a1.555,1.555,0,0,0,1.236-.547c.632-.027,1.265-.048,1.9-.085a.442.442,0,0,0,.433-.3q1.237,7.827,2.417,15.662,1.563,10.4,3.023,20.814l-.023.012c-.674-.4-2.287-.18-2.066.635l.452,1.661c1.944-.408,3.911-.722,5.875-1.081.209-.676.448-1.343.689-2.008l-.228-1.252m-32.868-19.363q.074-.742.147-1.484l.1-1.039a.894.894,0,0,0,.208-.112q-.222,1.319-.458,2.635m5.369-15.149,2.4-.234c.023.037.045.075.069.111l-2.466.126v0" transform="translate(-268.634 -13.137)" fill="#e57048"/>
    <path id="Path_9129" data-name="Path 9129" d="M458.254,44.9q-2.223-11.1-4.684-22.15c-.4-1.82-4.049-2.22-4.667-.293a542.327,542.327,0,0,0-18.9,78.706q-1.815,11.19-3.16,22.439c-.1.82.855,1.3,1.7,1.471a.508.508,0,0,0,.174.459,1.892,1.892,0,0,0,1.238.381l3.126,0a4.919,4.919,0,0,0,1.659-.3c.7-.047,1.261-.248,1.344-.662.021-.1.04-.206.061-.309a.777.777,0,0,0,.1-.514q3.974-20.008,7.758-40.048A142.341,142.341,0,0,1,460.409,83q1.481,9.083,2.808,18.188,1.626,11.186,3.012,22.4c.267,2.153,5,1.98,4.737-.139Q466.078,83.987,458.254,44.9M450.792,31.9c.155.727.3,1.455.453,2.182a6.621,6.621,0,0,0-1.061-.129c.2-.684.4-1.37.609-2.053M435.3,104.443q-1.82,9.375-3.683,18.743,2.338-19.448,6.1-38.712a1.226,1.226,0,0,0,.912.385c.143-.023.287-.043.43-.066q-1.862,9.828-3.763,19.65m4.566-23.922c-.459.065-.92.125-1.379.195q2.944-14.512,6.689-28.871-2.6,14.346-5.31,28.676m4.922-.606q2.325-12.36,4.587-24.73,1.468-8.062,2.9-16.13,4.118,19.974,7.486,40.073a141.509,141.509,0,0,0-14.972.787" transform="translate(-256.923 -12.755)" fill="#ff8f62"/>
  </g>
</svg>
