<svg xmlns="http://www.w3.org/2000/svg" xmlns:xlink="http://www.w3.org/1999/xlink" width="21" height="21" viewBox="0 0 21 21">
  <defs>
    <clipPath id="clip-path">
      <rect id="Rectangle_1444" data-name="Rectangle 1444" width="10.031" height="8.985" fill="#fff"/>
    </clipPath>
  </defs>
  <g id="Group_2061" data-name="Group 2061" transform="translate(-284 -228)">
    <circle id="Ellipse_67" data-name="Ellipse 67" cx="10.5" cy="10.5" r="10.5" transform="translate(284 228)" fill="#1fb926"/>
    <g id="Group_2060" data-name="Group 2060" transform="translate(289.484 234.093)">
      <g id="Group_2059" data-name="Group 2059" transform="translate(0 0)" clip-path="url(#clip-path)">
        <path id="Path_9025" data-name="Path 9025" d="M9.893.441,9.424.075a.358.358,0,0,0-.5.063L3.654,6.9a.313.313,0,0,1-.476.032L1.024,4.821a.359.359,0,0,0-.506.006L.1,5.252a.359.359,0,0,0,.006.506l3.2,3.132a.313.313,0,0,0,.476-.032L9.955.943a.359.359,0,0,0-.062-.5" transform="translate(0 0)" fill="#fff"/>
      </g>
    </g>
  </g>
</svg>
