<svg xmlns="http://www.w3.org/2000/svg" xmlns:xlink="http://www.w3.org/1999/xlink" width="20.364" height="17.818" viewBox="0 0 20.364 17.818">
  <defs>
    <clipPath id="clip-path">
      <rect id="Rectangle_1147" data-name="Rectangle 1147" width="20.364" height="17.818" fill="#fff"/>
    </clipPath>
  </defs>
  <g id="Login" transform="translate(0 0)">
    <g id="Group_1592" data-name="Group 1592" transform="translate(0 0)" clip-path="url(#clip-path)">
      <path id="Path_7665" data-name="Path 7665" d="M48.749,17.86a5.811,5.811,0,0,1-.383.471c-1.041,1.049-2.089,2.09-3.132,3.137a.672.672,0,0,1-.659.232.633.633,0,0,1-.305-1.066c.367-.383.748-.751,1.122-1.126L46.5,18.4a.494.494,0,0,0,.039-.069H40.994a.645.645,0,0,1-.724-.681.617.617,0,0,1,.568-.587c.079-.006.159,0,.238,0h5.5c-.082-.085-.128-.135-.176-.183q-1.04-1.04-2.081-2.079a.653.653,0,0,1-.2-.7.631.631,0,0,1,.975-.306,1.641,1.641,0,0,1,.175.161Q46.9,15.571,48.532,17.2a2.287,2.287,0,0,1,.217.3Z" transform="translate(-28.385 -9.627)" fill="#fff"/>
      <path id="Path_7666" data-name="Path 7666" d="M7.616,42.133H.756A.657.657,0,0,1,0,41.382q0-1.4,0-2.8a4.026,4.026,0,0,1,3.374-4.025,4.106,4.106,0,0,1,.712-.053q3.549-.006,7.1,0a4.021,4.021,0,0,1,4.029,3.369,4.161,4.161,0,0,1,.055.712c.006.941,0,1.882,0,2.824a.65.65,0,0,1-.736.731H7.616M14,40.851c0-.785,0-1.547,0-2.309a2.754,2.754,0,0,0-2.781-2.772q-3.579-.005-7.157,0a2.754,2.754,0,0,0-2.788,2.785c0,.7,0,1.4,0,2.107v.189Z" transform="translate(0 -24.315)" fill="#fff"/>
      <path id="Path_7667" data-name="Path 7667" d="M15.732,8.481a4.24,4.24,0,1,1,4.25-4.223,4.248,4.248,0,0,1-4.25,4.223m0-1.273a2.968,2.968,0,1,0-2.968-2.975,2.972,2.972,0,0,0,2.968,2.975" transform="translate(-8.101 0)" fill="#fff"/>
    </g>
  </g>
</svg>
