<svg id="Order_Summary" data-name="Order Summary" xmlns="http://www.w3.org/2000/svg" xmlns:xlink="http://www.w3.org/1999/xlink" width="19.82" height="19.815" viewBox="0 0 19.82 19.815">
  <defs>
    <clipPath id="clip-path">
      <rect id="Rectangle_1447" data-name="Rectangle 1447" width="19.82" height="19.815" fill="#fff"/>
    </clipPath>
  </defs>
  <g id="Group_2069" data-name="Group 2069" clip-path="url(#clip-path)">
    <path id="Path_9030" data-name="Path 9030" d="M14.261,19.815A5.493,5.493,0,0,1,11,18.709a.779.779,0,0,0-.431-.145c-1.854,0-3.74,0-5.563,0H1.814A1.735,1.735,0,0,1,.054,17.21,2.379,2.379,0,0,1,0,16.675c0-1.242,0-2.505,0-3.727V11.83q0-.563,0-1.126C0,9.459,0,8.171.007,6.9A1.021,1.021,0,0,1,.141,6.42C.9,5.134,1.687,3.83,2.444,2.568l.99-1.65A1.76,1.76,0,0,1,5.053,0h8.464a1.746,1.746,0,0,1,1.608.9l.31.517c.987,1.644,2.009,3.343,3,5.02a.9.9,0,0,1,.117.428c.006.713.007,1.438.007,2.14,0,.518,0,1.053,0,1.58a.667.667,0,0,0,.124.38,5.506,5.506,0,0,1-3.6,8.786,5.783,5.783,0,0,1-.835.062m.049-10.047a4.53,4.53,0,1,0,.012,0ZM.978,16.676a.793.793,0,0,0,.912.907H9.81l-.117-.21c-1.4-2.522-1.227-4.776.516-6.7a5.222,5.222,0,0,1,3.936-1.909,6.932,6.932,0,0,1,3.221.9l.208.11V7.268H.978ZM10.072.976a.933.933,0,0,0-.124.011L9.9.993l-.127.013V6.272h7.411l-.11-.208-.028-.054c-.018-.035-.033-.064-.05-.093l-.837-1.395Q15.224,2.962,14.289,1.4A.823.823,0,0,0,13.53.974c-.56,0-1.116,0-1.672,0H10.072ZM5.09.972a.922.922,0,0,0-.856.5C3.621,2.5,2.992,3.548,2.384,4.56L1.7,5.7l-.136.23-.2.336H8.783V.976H6.578C6,.978,5.532.976,5.1.972Z" transform="translate(0)" fill="#fff"/>
    <path id="Path_9031" data-name="Path 9031" d="M59.345,173.565l-1.231,0a.482.482,0,0,1-.53-.476.454.454,0,0,1,.127-.332.572.572,0,0,1,.411-.154h1.948l.479,0a.482.482,0,1,1-.007.962l-1.2,0" transform="translate(-54.439 -163.173)" fill="#fff"/>
    <path id="Path_9032" data-name="Path 9032" d="M209.521,234.179a.525.525,0,0,1-.366-.169c-.565-.558-1.165-1.158-1.833-1.833a.494.494,0,0,1-.032-.714.462.462,0,0,1,.332-.147.57.57,0,0,1,.394.181c.324.321.639.64.973.978l.428.432.1.1.385-.387.572-.575.45-.451c.448-.449.911-.913,1.37-1.367a.536.536,0,0,1,.374-.165.472.472,0,0,1,.337.146.482.482,0,0,1-.02.7c-1.033,1.038-2.078,2.082-3.1,3.1a.515.515,0,0,1-.361.167" transform="translate(-195.84 -217.5)" fill="#fff"/>
  </g>
</svg>
