<svg id="Payment_Option" data-name="Payment Option" xmlns="http://www.w3.org/2000/svg" xmlns:xlink="http://www.w3.org/1999/xlink" width="20.414" height="17.768" viewBox="0 0 20.414 17.768">
  <defs>
    <clipPath id="clip-path">
      <rect id="Rectangle_1448" data-name="Rectangle 1448" width="20.414" height="17.768" fill="#fff"/>
    </clipPath>
  </defs>
  <g id="Group_2071" data-name="Group 2071" clip-path="url(#clip-path)">
    <path id="Path_9033" data-name="Path 9033" d="M1.471,89.4C.579,89.4.313,89.226,0,88.418V76.427A1.157,1.157,0,0,1,.623,75.6a1.564,1.564,0,0,1,.586-.141c1.14-.005,2.388-.008,3.928-.008H8.213a.6.6,0,0,1,.428.161.489.489,0,0,1,.14.356.518.518,0,0,1-.575.512H1.042v2.847H8.207a.88.88,0,0,1,.151.01.518.518,0,0,1,.423.514.512.512,0,0,1-.457.5,1.084,1.084,0,0,1-.126.006H1.047v8H19.381V87.265q0-1.707,0-3.414v-.031a1.049,1.049,0,0,1,.012-.2.515.515,0,0,1,.5-.413h.035a.516.516,0,0,1,.477.483c0,.046,0,.093,0,.144v.477q0,1.885,0,3.771A1.19,1.19,0,0,1,19.094,89.4H1.471Z" transform="translate(0 -71.633)" fill="#fff"/>
    <path id="Path_9034" data-name="Path 9034" d="M209.331,12.594a.568.568,0,0,1-.29-.086,12.415,12.415,0,0,1-2.936-2.248,6.681,6.681,0,0,1-1.685-3.6,19.078,19.078,0,0,1-.123-3.03c.005-.408.011-.83.005-1.245,0-.235.126-.395.418-.519l.926-.392c1-.422,2.032-.858,3.036-1.317a1.414,1.414,0,0,1,1.3,0c1.145.525,2.325,1.02,3.467,1.5l.477.2a.642.642,0,0,1,.449.684c-.01.345-.007.695-.005,1.033,0,.148,0,.3,0,.444a16.179,16.179,0,0,1-.152,2.834,6.813,6.813,0,0,1-2.449,4.178,14.968,14.968,0,0,1-2.119,1.465.628.628,0,0,1-.321.1m0-11.533a.454.454,0,0,0-.175.033c-1.219.516-2.44,1.039-3.631,1.556a.355.355,0,0,0-.2.293c.005.29.008.58.011.87.008.821.017,1.67.078,2.5a5.265,5.265,0,0,0,1.146,2.9,9.4,9.4,0,0,0,2.612,2.171.267.267,0,0,0,.14.035.391.391,0,0,0,.214-.062c.142-.1.284-.2.427-.3.413-.283.839-.576,1.231-.9a5.633,5.633,0,0,0,1.974-3.275,11.448,11.448,0,0,0,.175-2.461c0-.157,0-.3,0-.441,0-.4,0-.71-.006-1.03a.381.381,0,0,0-.2-.305c-1.163-.506-2.351-1.015-3.63-1.556a.443.443,0,0,0-.171-.032" transform="translate(-193.961 0)" fill="#fff"/>
    <path id="Path_9035" data-name="Path 9035" d="M52.964,229.843l-1.238,0a.63.63,0,0,1-.452-.165.483.483,0,0,1-.137-.351.525.525,0,0,1,.593-.513H54.17a.524.524,0,0,1,.579.508.484.484,0,0,1-.136.355.62.62,0,0,1-.447.166l-1.2,0" transform="translate(-48.552 -217.242)" fill="#fff"/>
    <path id="Path_9036" data-name="Path 9036" d="M257.461,79.763a.609.609,0,0,1-.482-.322l-.134-.2c-.353-.527-.719-1.071-1.071-1.611a.569.569,0,0,1-.076-.512.506.506,0,0,1,.352-.306.5.5,0,0,1,.134-.019.534.534,0,0,1,.438.256c.146.213.292.432.433.645l.228.343c.026.039.053.075.085.118l.05.067.1.138.655-.819c.485-.606.943-1.179,1.409-1.765a.588.588,0,0,1,.459-.273.555.555,0,0,1,.108.011.5.5,0,0,1,.382.313.553.553,0,0,1-.1.532c-.289.371-.588.743-.878,1.1l-.353.44-1.242,1.552-.018.023a.644.644,0,0,1-.48.286" transform="translate(-242.741 -71.685)" fill="#fff"/>
  </g>
</svg>
