<svg xmlns="http://www.w3.org/2000/svg" width="365.551" height="259.324" viewBox="0 0 365.551 259.324">
  <g id="Thank_You" transform="translate(-547.5 -148.135)">
    <path id="Path_48" data-name="Path 48" d="M287.49,115.819v80.374a46.559,46.559,0,0,1-46.559,46.558H108.276a46.559,46.559,0,0,1-46.56-46.558V115.819l93.126,52.356a40.321,40.321,0,0,0,39.523,0Z" transform="translate(555.307 163.589)" fill="none" stroke="#e51e25" stroke-linecap="round" stroke-linejoin="round" strokeWidth="2"/>
    <path id="Path_49" data-name="Path 49" d="M105.583,215.459a23.9,23.9,0,0,1-23.867-23.867V150.008l59.312,33.346a63.02,63.02,0,0,0,61.765,0l59.312-33.347v41.583a23.894,23.894,0,0,1-23.867,23.867Z" transform="translate(557.999 168.191)" fill="#efefef"/>
    <path id="Path_50" data-name="Path 50" d="M61.716,123.033,174.6,62.221,287.49,123.033" transform="translate(555.307 156.375)" fill="none" stroke="#e51e25" stroke-linecap="round" stroke-linejoin="round" strokeWidth="2"/>
    <path id="Path_51" data-name="Path 51" d="M95.624,105.219V56.339a14.3,14.3,0,0,1,14.3-14.3H230.155a14.3,14.3,0,0,1,14.3,14.3v48.88" transform="translate(559.871 153.659)" fill="none" stroke="#e51e25" stroke-linecap="round" stroke-linejoin="round" strokeWidth="2"/>
    <path id="Path_52" data-name="Path 52" d="M137.722,118.084l15.8,16.851,41.023-31.654" transform="translate(565.538 161.902)" fill="none" stroke="#e51e25" stroke-linecap="round" stroke-linejoin="round" strokeWidth="10"/>
    <path id="Path_53" data-name="Path 53" d="M52.579,214.013A138.82,138.82,0,0,1,112.3,13.058" transform="translate(551.154 149.758)" fill="none" stroke="#e51e25" stroke-linecap="round" stroke-linejoin="round" strokeWidth="2"/>
    <path id="Path_54" data-name="Path 54" d="M237.312,35.743a139.008,139.008,0,0,1,41.381,123.5" transform="translate(578.942 152.811)" fill="none" stroke="#e51e25" stroke-linecap="round" stroke-linejoin="round" strokeWidth="2"/>
    <circle id="Ellipse_6" data-name="Ellipse 6" cx="6.741" cy="6.741" r="6.741" transform="translate(848.304 312.75) rotate(-5.655)" fill="none" stroke="#e51e25" stroke-linecap="round" stroke-linejoin="round" strokeWidth="2"/>
    <path id="Path_55" data-name="Path 55" d="M184,10.194A9.193,9.193,0,1,1,174.8,1,9.194,9.194,0,0,1,184,10.194Z" transform="translate(569.292 148.135)" fill="none" stroke="#e51e25" stroke-linecap="round" stroke-linejoin="round" strokeWidth="2"/>
    <line id="Line_20" data-name="Line 20" x2="363.551" transform="translate(548.5 406.459)" fill="none" stroke="#e51e25" stroke-linecap="round" stroke-linejoin="round" strokeWidth="2"/>
  </g>
</svg>
